<?xml version="1.0" encoding="utf-8"?>
<!-- Generator: Adobe Illustrator 16.0.0, SVG Export Plug-In . SVG Version: 6.00 Build 0)  -->
<!DOCTYPE svg PUBLIC "-//W3C//DTD SVG 1.1//EN" "http://www.w3.org/Graphics/SVG/1.1/DTD/svg11.dtd">
<svg version="1.1" id="Layer_1" xmlns="http://www.w3.org/2000/svg" xmlns:xlink="http://www.w3.org/1999/xlink" x="0px" y="0px"
	 width="612px" height="332px" viewBox="0 0 612 332" enable-background="new 0 0 612 332" xml:space="preserve">
<g>
	<defs>
		<rect id="SVGID_1_" width="612" height="332"/>
	</defs>
	<clipPath id="SVGID_2_">
		<use xlink:href="#SVGID_1_"  overflow="visible"/>
	</clipPath>
	<path clip-path="url(#SVGID_2_)" fill="#FFFFFF" d="M546.125,67.875c-10.25-7.625-21.875,4.5-21.875,4.5
		c-5.25,6.5-2.25,11.562-0.5,12.062s2.313,2,7.5-5.437c5.188-7.438,12.562-5.563,13.417,1.5C548,104.5,502.833,138,485.5,151.5
		s-62.25,43.063-63.5,43.875s-1.313,0.125-1.5-0.375c-0.188-0.5-4.188-9.624-8.938-13.999c-4.749-4.376-9-10.001-10.312-11.813
		c-1.313-1.813-1.063-1.625,1.562-3.487c25.438-18.925,27.813-25.263,29.438-31.201c1.625-5.937-9.438-10.625-21.5-4.937
		c-30,14.25-20.688,35.125-19.75,36.138c0.938,1.012,0.625,1.549-0.625,2.362c-14.188,9-29.25,17.625-32.188,19.313
		c-2.937,1.687,0.313-4.5-5.25-7.375c-5.562-2.876-15.125,7.25-16.687,9.5c-1.563,2.25-1.25,0.625-3.063-0.5
		c-6.312-3.25-17.562,9.124-18.5,10.437c-0.937,1.313-1.25,0.688-3.25-0.875c-5.937-5.687-21.968-10.187-22.812-10.625
		c-0.844-0.437-1.125-1.104,1.708-5.104c10.834-13.168,10.084-24.75,1.834-31.667c-10.5-8.417-36.292,1.208-41,19.833
		c-3.695,14.614,25.666,20.001,26.666,20.084c1,0.082,1.084,0.832,0.084,2.416s-2.75,6.084-3.417,7.084s-3.417,4.915-3.75,5.5
		c-0.333,0.582-1.25,1-2.833,0.082c-8.834-4.582-16.162,1.756-18.834,4.168c-3.645,3.29,0.084-0.668-8.166-1.418
		s-13.9,7.17-14.334,7.418c-0.875,0.5-0.583-1.585-2.291-3.25c-3.834-3.585-11.459-1.918-13.459-0.918s-3.583,1.168-6.416,1.583
		c-10.417,2-24.167,13.688-24.604,14.188c-0.438,0.5-1.688,1.812-1.938-0.75c-0.937-6.5-6.437-5.812-8.375-5.75
		c-1.937,0.063-1.25-1.312-0.875-2.312s1.375-3.252-0.125-8.063c-1.5-4.813-7.25-7.062-9-7.229c-1.75-0.168-2.917-0.833-0.75-2.5
		c7.167-5.334,18.583-18.168,23.25-25C188.708,167,200,136.5,169.667,139c-57.334,5.667-98.917,64.751-104.792,77.625
		c-5.875,12.875-9.625,40.877,8.5,44.377S119.25,237.124,127,229.374c7.75-7.748,20.75-20.373,24.917-20.54
		C162,208.501,162,218.666,162,219.334c0,0.667,0.583,3.332-1.667,4c-28.083,8.415-40.416,22.082-45.083,28.667
		c-4.667,6.583,0,13.165,4.833,12.415c17.917-3.165,38.417-27.792,40.542-30.25c2.125-2.457,3.167-6.457,6.292-6.332
		c5.875,0.25,5.041,4.79,3.958,8.415s0.958,6.127,5.167,2.042c9.625-9.332,18.125-14.165,19.75-14.665s-0.25,1.623-0.625,4.165
		c-0.667,5.168,2.625,7.293,6.166,6c8.292-3.082,9.917-15.29,9.959-16.457c0.041-1.168,4.875-1.75,7.25-0.168
		c4.291,3.085,1.791,7.25,1,8.875c-0.792,1.625,0.458,3.668,3.458,2.458c3-1.208,1.667-2.708,4.333-7.165
		c4.875-7.71,11.125-7.668,13.125-7.418s2.917,1.418,2,2.708c-0.916,1.292-1.208,4.417,0.834,4.292
		c4.041-0.5,3.708-5.125,9.333-8.75c8.542-5.667,12.167-2.375,13.208-1.207c1.042,1.167-1.333,6.04,1.709,5.79
		c3.041-0.25,4.146-3.25,4.958-4.998c0.813-1.752,1.813-2.188,2.188-1.252c0.375,0.938,0.562,4.438,6.812,3.5
		c14.562-2.498,15.125-13.312,15.062-13.874c-0.062-0.563-0.625-2.688,1.75-1.375c6,2.938,10.063,4.751,11.125,8.374
		c1.063,3.625,2.375,2.563,4.438,1.502c2.062-1.063,1.187-5.563,6.625-9.813c5.437-4.25,8.167-1.313,8.75,1.604
		c0.583,2.918,2,2.835,4.167,2c2.166-0.832,2.083-3.416,6-7.582c7.833-8.75,12.166-6.418,12.083-1.418s2.833,3.834,4.083,2.084
		s5-3.334,7.75-4.916c8.25-4.5,27.979-17.146,29.104-17.959s1.875-1.313,2.375-0.625s2.563,3.625,6.124,6.938
		c10,8.938,11.125,13,12.938,17.375c1.812,4.375-0.188,4.938-0.188,4.938s-24.188,14.583-42.521,32.083
		c-18.334,17.5-7.834,29.167,23.333,6.665c31.167-22.498,27.833-36.833,27.875-37.415c0.042-0.583-0.167-0.918,0.792-1.584
		c56.166-36,85.666-60.667,106.5-80.333C550.5,101,556.375,75.5,546.125,67.875 M146.75,203.438c-1.062-0.187-1.375,0.25-3,1
		s-2.417,0.063-1.417-2.271c1-2.332,5.584-19.5,6.75-24.582c1.167-5.084,0.167-5.084-0.583-5.584s-3.917-0.584-4.583,3.166
		c-2.5,11.085-6.667,24.418-8.75,29.5c-2.084,5.083-1.834,3.585-3.584,4.833c-12.583,8.085-19.02,15.688-20.833,18.438
		c-1.812,2.75-0.5,4.562-0.062,5c0.437,0.437,1.375,1.25,0.062,2.5c-8,8.375-19.333,15.146-27,17.729
		c-7.667,2.585-15.375-1.79-16.625-14.667c-3-29.498,45-67.374,45-67.374c24.313-17.063,34.708-19.792,48.75-22.75
		c14.45-3.044,22.875,1.875,19,16.542C174.25,184.332,147.813,203.626,146.75,203.438 M157.875,231.188
		c0,0-10.562,13.438-31.437,25.438c-4.75,2.562-6.563-1.5-3.688-5.563c2.875-4.062,20.5-15.625,34.563-20.938
		C158.75,229.688,158.781,230.106,157.875,231.188 M277.875,184.063c-1.187-0.875-15.437-2.375-18.625-9.75
		c-3.187-7.375,11.563-16.188,11.563-16.188s12.625-7.375,17.551,0.423c7.698,12.89-3.322,18.787-5.176,26.265
		C282.063,187.126,279.063,184.938,277.875,184.063 M290.75,202.438c-2.005,5.043-6.187,8.25-10.812,6
		c-2.25-1-0.125-8.125,1.25-10.938s3.439-2.58,4.625-2.125C285.813,195.375,292.812,197.25,290.75,202.438 M399.25,161.667
		c-2.719,1.917-2.75,1.177-3.031,0.771c-0.281-0.406-3.969-4.625-2.018-9.207c3.507-8.939,15.632-17.314,21.882-18.981
		c6.25-1.666,10.917-0.583,9.084,4.167C420.333,149.083,399.25,161.667,399.25,161.667 M414.125,209.188
		c-0.875,2.688-2.25,15.438-33.75,33.375c-7.125,4.25-11.813,0.688-9.813-1.438c2-2.125,21.438-19.748,42.813-33.437
		C413.375,207.688,415,206.499,414.125,209.188"/>
</g>
</svg>
