<?xml version="1.0" encoding="utf-8"?>
<!-- Generator: Adobe Illustrator 16.0.0, SVG Export Plug-In . SVG Version: 6.00 Build 0)  -->
<!DOCTYPE svg PUBLIC "-//W3C//DTD SVG 1.1//EN" "http://www.w3.org/Graphics/SVG/1.1/DTD/svg11.dtd">
<svg version="1.1" id="Capa_1" xmlns="http://www.w3.org/2000/svg" xmlns:xlink="http://www.w3.org/1999/xlink" x="0px" y="0px"
	 width="595.279px" height="334px" viewBox="0 251.445 595.279 334" enable-background="new 0 251.445 595.279 334"
	 xml:space="preserve">
<g>
	<path fill="#FFFFFF" d="M20.007,523.815l9.758-41.683l-9.758-43.086c-0.268-1.28-2.72-2.257-5.708-2.257
		c-3.023,0-5.477,0.977-5.709,2.269L0,482.134l8.59,41.683c0.232,1.292,2.686,2.268,5.709,2.268
		C17.287,526.083,19.74,525.107,20.007,523.815z M81.024,546.954l8.269-64.409l-8.269-99.65c-0.244-2.536-3.34-4.524-7.09-4.524
		c-3.78,0-6.882,1.988-7.072,4.524l-7.334,99.65l7.334,64.409c0.185,2.512,3.292,4.5,7.072,4.5
		C77.69,551.454,80.78,549.49,81.024,546.954z M141.915,545.895l6.904-63.313l-6.904-132.67c-0.185-3.113-3.856-5.56-8.357-5.56
		c-4.536,0-8.209,2.44-8.369,5.56l-6.132,132.67l6.126,63.35c0.159,3.091,3.839,5.524,8.368,5.524
		C138.051,551.442,141.731,549.014,141.915,545.895z M202.687,544.954l5.661-62.368l-5.661-133.634
		c-0.138-3.696-4.327-6.589-9.524-6.589c-5.231,0-9.417,2.893-9.548,6.589l-5.03,133.634l5.061,62.356
		c0.106,3.659,4.292,6.56,9.523,6.56C198.36,551.502,202.544,548.65,202.687,544.954z M263.4,544.162l4.477-61.552L263.4,329.385
		c-0.096-4.208-4.869-7.625-10.638-7.625c-5.78,0-10.542,3.429-10.639,7.625l-4.012,153.185c0,0.102,4.012,61.604,4.012,61.604
		c0.097,4.155,4.857,7.572,10.639,7.572C258.531,551.746,263.304,548.371,263.4,544.162z M305.92,551.788
		c0.196,0.012,211.277,0.118,212.652,0.118c42.372,0,76.707-33.216,76.707-74.189c0-40.984-34.335-74.201-76.713-74.201
		c-10.513,0-20.531,2.071-29.669,5.769c-6.102-66.85-64.088-119.3-134.802-119.3c-17.299,0-34.182,3.292-49.074,8.858
		c-5.786,2.179-7.334,4.399-7.382,8.732v235.452C297.699,547.563,301.337,551.347,305.92,551.788z"/>
</g>
</svg>
